<svg id="visual" viewBox="0 0 960 300" width="960" height="300" xmlns="http://www.w3.org/2000/svg" xmlns:xlink="http://www.w3.org/1999/xlink" version="1.1"><rect x="0" y="0" width="960" height="300" fill="#f8f8f8"></rect><path d="M0 123L22.8 118C45.7 113 91.3 103 137 99.8C182.7 96.7 228.3 100.3 274 97.5C319.7 94.7 365.3 85.3 411.2 85.8C457 86.3 503 96.7 548.8 97.3C594.7 98 640.3 89 686 84C731.7 79 777.3 78 823 81.5C868.7 85 914.3 93 937.2 97L960 101L960 0L937.2 0C914.3 0 868.7 0 823 0C777.3 0 731.7 0 686 0C640.3 0 594.7 0 548.8 0C503 0 457 0 411.2 0C365.3 0 319.7 0 274 0C228.3 0 182.7 0 137 0C91.3 0 45.7 0 22.8 0L0 0Z" fill="#add2cd"></path><path d="M0 72L22.8 76.7C45.7 81.3 91.3 90.7 137 91C182.7 91.3 228.3 82.7 274 79C319.7 75.3 365.3 76.7 411.2 78.5C457 80.3 503 82.7 548.8 80.5C594.7 78.3 640.3 71.7 686 68.7C731.7 65.7 777.3 66.3 823 69.3C868.7 72.3 914.3 77.7 937.2 80.3L960 83L960 0L937.2 0C914.3 0 868.7 0 823 0C777.3 0 731.7 0 686 0C640.3 0 594.7 0 548.8 0C503 0 457 0 411.2 0C365.3 0 319.7 0 274 0C228.3 0 182.7 0 137 0C91.3 0 45.7 0 22.8 0L0 0Z" fill="#98cac3"></path><path d="M0 72L22.8 68.8C45.7 65.7 91.3 59.3 137 54.7C182.7 50 228.3 47 274 45.8C319.7 44.7 365.3 45.3 411.2 45.3C457 45.3 503 44.7 548.8 44.2C594.7 43.7 640.3 43.3 686 47.5C731.7 51.7 777.3 60.3 823 60.7C868.7 61 914.3 53 937.2 49L960 45L960 0L937.2 0C914.3 0 868.7 0 823 0C777.3 0 731.7 0 686 0C640.3 0 594.7 0 548.8 0C503 0 457 0 411.2 0C365.3 0 319.7 0 274 0C228.3 0 182.7 0 137 0C91.3 0 45.7 0 22.8 0L0 0Z" fill="#83c1b9"></path><path d="M0 48L22.8 48.5C45.7 49 91.3 50 137 50.2C182.7 50.3 228.3 49.7 274 48C319.7 46.3 365.3 43.7 411.2 44.7C457 45.7 503 50.3 548.8 50.7C594.7 51 640.3 47 686 45.2C731.7 43.3 777.3 43.7 823 41.2C868.7 38.7 914.3 33.3 937.2 30.7L960 28L960 0L937.2 0C914.3 0 868.7 0 823 0C777.3 0 731.7 0 686 0C640.3 0 594.7 0 548.8 0C503 0 457 0 411.2 0C365.3 0 319.7 0 274 0C228.3 0 182.7 0 137 0C91.3 0 45.7 0 22.8 0L0 0Z" fill="#6db9af"></path><path d="M0 33L22.8 30.5C45.7 28 91.3 23 137 21C182.7 19 228.3 20 274 22.5C319.7 25 365.3 29 411.2 31C457 33 503 33 548.8 29.5C594.7 26 640.3 19 686 15.5C731.7 12 777.3 12 823 15.3C868.7 18.7 914.3 25.3 937.2 28.7L960 32L960 0L937.2 0C914.3 0 868.7 0 823 0C777.3 0 731.7 0 686 0C640.3 0 594.7 0 548.8 0C503 0 457 0 411.2 0C365.3 0 319.7 0 274 0C228.3 0 182.7 0 137 0C91.3 0 45.7 0 22.8 0L0 0Z" fill="#54b0a5"></path></svg>