<svg id="visual" viewBox="0 0 960 300" width="960" height="300" xmlns="http://www.w3.org/2000/svg" xmlns:xlink="http://www.w3.org/1999/xlink" version="1.1"><rect x="0" y="0" width="960" height="300" fill="#f8f8f8"></rect><path d="M0 175L22.8 180C45.7 185 91.3 195 137 198.2C182.7 201.3 228.3 197.7 274 200.5C319.7 203.3 365.3 212.7 411.2 212.2C457 211.7 503 201.3 548.8 200.7C594.7 200 640.3 209 686 214C731.7 219 777.3 220 823 216.5C868.7 213 914.3 205 937.2 201L960 197L960 301L937.2 301C914.3 301 868.7 301 823 301C777.3 301 731.7 301 686 301C640.3 301 594.7 301 548.8 301C503 301 457 301 411.2 301C365.3 301 319.7 301 274 301C228.3 301 182.7 301 137 301C91.3 301 45.7 301 22.8 301L0 301Z" fill="#add2cd"></path><path d="M0 226L22.8 221.3C45.7 216.7 91.3 207.3 137 207C182.7 206.7 228.3 215.3 274 219C319.7 222.7 365.3 221.3 411.2 219.5C457 217.7 503 215.3 548.8 217.5C594.7 219.7 640.3 226.3 686 229.3C731.7 232.3 777.3 231.7 823 228.7C868.7 225.7 914.3 220.3 937.2 217.7L960 215L960 301L937.2 301C914.3 301 868.7 301 823 301C777.3 301 731.7 301 686 301C640.3 301 594.7 301 548.8 301C503 301 457 301 411.2 301C365.3 301 319.7 301 274 301C228.3 301 182.7 301 137 301C91.3 301 45.7 301 22.8 301L0 301Z" fill="#98cac3"></path><path d="M0 226L22.8 229.2C45.7 232.3 91.3 238.7 137 243.3C182.7 248 228.3 251 274 252.2C319.7 253.3 365.3 252.7 411.2 252.7C457 252.7 503 253.3 548.8 253.8C594.7 254.3 640.3 254.7 686 250.5C731.7 246.3 777.3 237.7 823 237.3C868.7 237 914.3 245 937.2 249L960 253L960 301L937.2 301C914.3 301 868.7 301 823 301C777.3 301 731.7 301 686 301C640.3 301 594.7 301 548.8 301C503 301 457 301 411.2 301C365.3 301 319.7 301 274 301C228.3 301 182.7 301 137 301C91.3 301 45.7 301 22.8 301L0 301Z" fill="#83c1b9"></path><path d="M0 250L22.8 249.5C45.7 249 91.3 248 137 247.8C182.7 247.7 228.3 248.3 274 250C319.7 251.7 365.3 254.3 411.2 253.3C457 252.3 503 247.7 548.8 247.3C594.7 247 640.3 251 686 252.8C731.7 254.7 777.3 254.3 823 256.8C868.7 259.3 914.3 264.7 937.2 267.3L960 270L960 301L937.2 301C914.3 301 868.7 301 823 301C777.3 301 731.7 301 686 301C640.3 301 594.7 301 548.8 301C503 301 457 301 411.2 301C365.3 301 319.7 301 274 301C228.3 301 182.7 301 137 301C91.3 301 45.7 301 22.8 301L0 301Z" fill="#6db9af"></path><path d="M0 265L22.8 267.5C45.7 270 91.3 275 137 277C182.7 279 228.3 278 274 275.5C319.7 273 365.3 269 411.2 267C457 265 503 265 548.8 268.5C594.7 272 640.3 279 686 282.5C731.7 286 777.3 286 823 282.7C868.7 279.3 914.3 272.7 937.2 269.3L960 266L960 301L937.2 301C914.3 301 868.7 301 823 301C777.3 301 731.7 301 686 301C640.3 301 594.7 301 548.8 301C503 301 457 301 411.2 301C365.3 301 319.7 301 274 301C228.3 301 182.7 301 137 301C91.3 301 45.7 301 22.8 301L0 301Z" fill="#54b0a5"></path></svg>